# WaveFront *.obj file (generated by Autodesk ATF)

mtllib Follower_Base(1) v1.mtl

g Netzkörper1

v 0.000000 48.604351 0.000000
v 0.000000 48.604351 2.999999
v 0.000000 85.604347 0.000000
v 0.000000 85.604347 2.999999
v 0.500001 53.104351 2.999999
v 0.500001 53.104351 8.000001
v 0.500001 81.104347 2.999999
v 0.500001 81.104347 8.000001
v 1.035899 51.104351 2.999999
v 1.035899 51.104351 8.000001
v 1.035899 55.104351 2.999999
v 1.035899 55.104351 8.000001
v 1.035899 79.104347 2.999999
v 1.035899 79.104347 8.000001
v 1.035899 83.104347 2.999999
v 1.035899 83.104347 8.000001
v 1.613248 53.104351 1.499996
v 1.613248 53.104351 8.000001
v 1.613248 81.104347 1.499996
v 1.613248 81.104347 8.000001
v 2.500001 49.640251 2.999999
v 2.500001 49.640251 8.000001
v 2.500001 56.568451 2.999999
v 2.500001 56.568451 8.000001
v 2.500001 77.640244 2.999999
v 2.500001 77.640244 8.000001
v 2.500001 84.568451 2.999999
v 2.500001 84.568451 8.000001
v 3.056623 50.604351 1.499996
v 3.056623 50.604351 8.000001
v 3.056623 55.604351 1.499996
v 3.056623 55.604351 8.000001
v 3.056623 78.604347 1.499996
v 3.056623 78.604347 8.000001
v 3.056623 83.604340 1.499996
v 3.056623 83.604340 8.000001
v 4.500002 49.104351 2.999999
v 4.500002 49.104351 8.000001
v 4.500002 57.104351 2.999999
v 4.500002 57.104351 8.000001
v 4.500002 77.104340 2.999999
v 4.500002 77.104340 8.000001
v 4.500002 85.104347 2.999999
v 4.500002 85.104347 8.000001
v 5.943377 50.604351 1.499996
v 5.943377 50.604351 8.000001
v 5.943377 55.604351 1.499996
v 5.943377 55.604351 8.000001
v 5.943377 78.604347 1.499996
v 5.943377 78.604347 8.000001
v 5.943377 83.604340 1.499996
v 5.943377 83.604340 8.000001
v 6.499998 49.640251 2.999999
v 6.499998 49.640251 8.000001
v 6.499998 56.568451 2.999999
v 6.499998 56.568451 8.000001
v 6.499998 77.640244 2.999999
v 6.499998 77.640244 8.000001
v 6.499998 84.568451 2.999999
v 6.499998 84.568451 8.000001
v 7.386751 53.104351 1.499996
v 7.386751 53.104351 8.000001
v 7.386751 81.104347 1.499996
v 7.386751 81.104347 8.000001
v 7.964101 51.104351 2.999999
v 7.964101 51.104351 8.000001
v 7.964101 55.104351 2.999999
v 7.964101 55.104351 8.000001
v 7.964101 79.104347 2.999999
v 7.964101 79.104347 8.000001
v 7.964101 83.104347 2.999999
v 7.964101 83.104347 8.000001
v 8.499999 53.104351 2.999999
v 8.499999 53.104351 8.000001
v 8.499999 81.104347 2.999999
v 8.499999 81.104347 8.000001
v 37.500000 53.104351 2.999999
v 37.500000 53.104351 8.000001
v 37.500000 81.104347 2.999999
v 37.500000 81.104347 8.000001
v 38.035900 51.104351 2.999999
v 38.035900 51.104351 8.000001
v 38.035900 55.104351 2.999999
v 38.035900 55.104351 8.000001
v 38.035900 79.104347 2.999999
v 38.035900 79.104347 8.000001
v 38.035900 83.104347 2.999999
v 38.035900 83.104347 8.000001
v 38.613251 53.104351 1.499996
v 38.613251 53.104351 8.000001
v 38.613251 81.104347 1.499996
v 38.613251 81.104347 8.000001
v 39.500000 49.640251 2.999999
v 39.500000 49.640251 8.000001
v 39.500000 56.568451 2.999999
v 39.500000 56.568451 8.000001
v 39.500000 77.640244 2.999999
v 39.500000 77.640244 8.000001
v 39.500000 84.568451 2.999999
v 39.500000 84.568451 8.000001
v 40.056622 50.604351 1.499996
v 40.056622 50.604351 8.000001
v 40.056622 55.604351 1.499996
v 40.056622 55.604351 8.000001
v 40.056622 78.604347 1.499996
v 40.056622 78.604347 8.000001
v 40.056622 83.604340 1.499996
v 40.056622 83.604340 8.000001
v 41.500000 49.104351 2.999999
v 41.500000 49.104351 8.000001
v 41.500000 57.104351 2.999999
v 41.500000 57.104351 8.000001
v 41.500000 77.104340 2.999999
v 41.500000 77.104340 8.000001
v 41.500000 85.104347 2.999999
v 41.500000 85.104347 8.000001
v 42.943378 50.604351 1.499996
v 42.943378 50.604351 8.000001
v 42.943378 55.604351 1.499996
v 42.943378 55.604351 8.000001
v 42.943378 78.604347 1.499996
v 42.943378 78.604347 8.000001
v 42.943378 83.604340 1.499996
v 42.943378 83.604340 8.000001
v 43.500000 49.640251 2.999999
v 43.500000 49.640251 8.000001
v 43.500000 56.568451 2.999999
v 43.500000 56.568451 8.000001
v 43.500000 77.640244 2.999999
v 43.500000 77.640244 8.000001
v 43.500000 84.568451 2.999999
v 43.500000 84.568451 8.000001
v 44.386749 53.104351 1.499996
v 44.386749 53.104351 8.000001
v 44.386749 81.104347 1.499996
v 44.386749 81.104347 8.000001
v 44.964100 51.104351 2.999999
v 44.964100 51.104351 8.000001
v 44.964100 55.104351 2.999999
v 44.964100 55.104351 8.000001
v 44.964100 79.104347 2.999999
v 44.964100 79.104347 8.000001
v 44.964100 83.104347 2.999999
v 44.964100 83.104347 8.000001
v 45.500000 53.104351 2.999999
v 45.500000 53.104351 8.000001
v 45.500000 81.104347 2.999999
v 45.500000 81.104347 8.000001
v 49.000000 48.604351 2.999999
v 49.000000 48.604351 8.999996
v 49.000000 85.604347 0.000000
v 49.000000 85.604347 2.999999
v 49.000000 96.604347 0.000000
v 49.000000 102.604301 5.999997
v 49.000000 108.604301 0.000000
v 49.000000 128.604401 0.000000
v 49.000000 128.604401 8.999996
v 53.000000 48.604351 2.999999
v 53.000000 48.604351 8.999996
v 53.000000 96.604347 0.000000
v 53.000000 96.604347 2.999999
v 53.000000 102.604301 5.999997
v 53.000000 108.604301 0.000000
v 53.000000 108.604301 2.999999
v 53.000000 128.604401 2.999999
v 53.000000 128.604401 8.999996
v 53.750000 84.604347 0.000000
v 53.750000 124.604301 0.000000
v 54.118431 83.229347 0.000000
v 54.118431 85.979347 0.000000
v 54.118431 123.229301 0.000000
v 54.118431 125.979301 0.000000
v 54.950001 84.604347 1.199998
v 54.950001 84.604347 2.999999
v 54.950001 124.604301 1.199998
v 54.950001 124.604301 2.999999
v 55.125000 82.222771 0.000000
v 55.125000 86.985924 0.000000
v 55.125000 122.222801 0.000000
v 55.125000 126.985901 0.000000
v 55.157661 83.829338 1.199998
v 55.157661 83.829338 2.999999
v 55.157661 85.379349 1.199998
v 55.157661 85.379349 2.999999
v 55.157661 123.829300 1.199998
v 55.157661 123.829300 2.999999
v 55.157661 125.379402 1.199998
v 55.157661 125.379402 2.999999
v 55.724998 83.262001 1.199998
v 55.724998 83.262001 2.999999
v 55.724998 85.946693 1.199998
v 55.724998 85.946693 2.999999
v 55.724998 123.262001 1.199998
v 55.724998 123.262001 2.999999
v 55.724998 125.946701 1.199998
v 55.724998 125.946701 2.999999
v 56.500000 81.854340 0.000000
v 56.500000 83.054352 1.199998
v 56.500000 83.054352 2.999999
v 56.500000 86.154350 1.199998
v 56.500000 86.154350 2.999999
v 56.500000 87.354347 0.000000
v 56.500000 121.854301 0.000000
v 56.500000 123.054298 1.199998
v 56.500000 123.054298 2.999999
v 56.500000 126.154297 1.199998
v 56.500000 126.154297 2.999999
v 56.500000 127.354401 0.000000
v 57.275002 83.262001 1.199998
v 57.275002 83.262001 2.999999
v 57.275002 85.946693 1.199998
v 57.275002 85.946693 2.999999
v 57.275002 123.262001 1.199998
v 57.275002 123.262001 2.999999
v 57.275002 125.946701 1.199998
v 57.275002 125.946701 2.999999
v 57.842339 83.829338 1.199998
v 57.842339 83.829338 2.999999
v 57.842339 85.379349 1.199998
v 57.842339 85.379349 2.999999
v 57.842339 123.829300 1.199998
v 57.842339 123.829300 2.999999
v 57.842339 125.379402 1.199998
v 57.842339 125.379402 2.999999
v 57.875000 82.222771 0.000000
v 57.875000 86.985924 0.000000
v 57.875000 122.222801 0.000000
v 57.875000 126.985901 0.000000
v 58.049999 84.604347 1.199998
v 58.049999 84.604347 2.999999
v 58.049999 124.604301 1.199998
v 58.049999 124.604301 2.999999
v 58.881569 83.229347 0.000000
v 58.881569 85.979347 0.000000
v 58.881569 123.229301 0.000000
v 58.881569 125.979301 0.000000
v 59.250000 84.604347 0.000000
v 59.250000 124.604301 0.000000
v 59.500000 96.604347 0.000000
v 59.500000 96.604347 2.999999
v 59.500000 108.604301 0.000000
v 59.500000 108.604301 2.999999
v 75.500000 96.604347 0.000000
v 75.500000 96.604347 2.999999
v 75.500000 108.604301 0.000000
v 75.500000 108.604301 2.999999
v 75.750000 84.604347 0.000000
v 75.750000 124.604301 0.000000
v 76.118431 83.229347 0.000000
v 76.118431 85.979347 0.000000
v 76.118431 123.229301 0.000000
v 76.118431 125.979301 0.000000
v 76.949997 84.604347 1.199998
v 76.949997 84.604347 2.999999
v 76.949997 124.604301 1.199998
v 76.949997 124.604301 2.999999
v 77.125000 82.222771 0.000000
v 77.125000 86.985924 0.000000
v 77.125000 122.222801 0.000000
v 77.125000 126.985901 0.000000
v 77.157661 83.829338 1.199998
v 77.157661 83.829338 2.999999
v 77.157661 85.379349 1.199998
v 77.157661 85.379349 2.999999
v 77.157661 123.829300 1.199998
v 77.157661 123.829300 2.999999
v 77.157661 125.379402 1.199998
v 77.157661 125.379402 2.999999
v 77.724998 83.262001 1.199998
v 77.724998 83.262001 2.999999
v 77.724998 85.946693 1.199998
v 77.724998 85.946693 2.999999
v 77.724998 123.262001 1.199998
v 77.724998 123.262001 2.999999
v 77.724998 125.946701 1.199998
v 77.724998 125.946701 2.999999
v 78.500000 81.854340 0.000000
v 78.500000 83.054352 1.199998
v 78.500000 83.054352 2.999999
v 78.500000 86.154350 1.199998
v 78.500000 86.154350 2.999999
v 78.500000 87.354347 0.000000
v 78.500000 121.854301 0.000000
v 78.500000 123.054298 1.199998
v 78.500000 123.054298 2.999999
v 78.500000 126.154297 1.199998
v 78.500000 126.154297 2.999999
v 78.500000 127.354401 0.000000
v 79.275002 83.262001 1.199998
v 79.275002 83.262001 2.999999
v 79.275002 85.946693 1.199998
v 79.275002 85.946693 2.999999
v 79.275002 123.262001 1.199998
v 79.275002 123.262001 2.999999
v 79.275002 125.946701 1.199998
v 79.275002 125.946701 2.999999
v 79.842339 83.829338 1.199998
v 79.842339 83.829338 2.999999
v 79.842339 85.379349 1.199998
v 79.842339 85.379349 2.999999
v 79.842339 123.829300 1.199998
v 79.842339 123.829300 2.999999
v 79.842339 125.379402 1.199998
v 79.842339 125.379402 2.999999
v 79.875000 82.222771 0.000000
v 79.875000 86.985924 0.000000
v 79.875000 122.222801 0.000000
v 79.875000 126.985901 0.000000
v 80.050003 84.604347 1.199998
v 80.050003 84.604347 2.999999
v 80.050003 124.604301 1.199998
v 80.050003 124.604301 2.999999
v 80.881569 83.229347 0.000000
v 80.881569 85.979347 0.000000
v 80.881569 123.229301 0.000000
v 80.881569 125.979301 0.000000
v 81.250000 84.604347 0.000000
v 81.250000 124.604301 0.000000
v 82.000000 48.604351 2.999999
v 82.000000 48.604351 8.999996
v 82.000000 96.604347 0.000000
v 82.000000 96.604347 2.999999
v 82.000000 102.604301 5.999997
v 82.000000 108.604301 0.000000
v 82.000000 108.604301 2.999999
v 82.000000 128.604401 2.999999
v 82.000000 128.604401 8.999996
v 86.000000 48.604351 2.999999
v 86.000000 48.604351 8.999996
v 86.000000 80.304352 0.000000
v 86.000000 80.304352 2.999999
v 86.000000 96.604347 0.000000
v 86.000000 102.604301 5.999997
v 86.000000 108.604301 0.000000
v 86.000000 128.604401 0.000000
v 86.000000 128.604401 8.999996
v 91.000000 49.604351 2.999999
v 91.000000 49.604351 8.000001
v 91.000000 53.604351 2.999999
v 91.000000 53.604351 8.000001
v 91.000000 75.304337 2.999999
v 91.000000 75.304337 8.000001
v 91.000000 79.304337 2.999999
v 91.000000 79.304337 8.000001
v 91.133972 49.104351 2.999999
v 91.133972 49.104351 8.000001
v 91.133972 79.804352 2.999999
v 91.133972 79.804352 8.000001
v 91.500000 48.738319 2.999999
v 91.500000 48.738319 8.000001
v 91.500000 80.170372 2.999999
v 91.500000 80.170372 8.000001
v 92.000000 48.604351 2.999999
v 92.000000 48.604351 8.000001
v 92.000000 80.304352 2.999999
v 92.000000 80.304352 8.000001
v 93.000000 50.604351 2.999999
v 93.000000 50.604351 8.000001
v 93.000000 53.604351 2.999999
v 93.000000 53.604351 8.000001
v 93.000000 75.304337 2.999999
v 93.000000 75.304337 8.000001
v 93.000000 78.304352 2.999999
v 93.000000 78.304352 8.000001
v 96.000000 48.604351 2.999999
v 96.000000 48.604351 8.000001
v 96.000000 50.604351 2.999999
v 96.000000 50.604351 8.000001
v 96.000000 78.304352 2.999999
v 96.000000 78.304352 8.000001
v 96.000000 80.304352 2.999999
v 96.000000 80.304352 8.000001
v 153.500000 48.604351 2.999999
v 153.500000 48.604351 8.000001
v 153.500000 50.604351 2.999999
v 153.500000 50.604351 8.000001
v 153.500000 78.304352 2.999999
v 153.500000 78.304352 8.000001
v 153.500000 80.304352 2.999999
v 153.500000 80.304352 8.000001
v 156.500000 50.604351 2.999999
v 156.500000 50.604351 8.000001
v 156.500000 53.604351 2.999999
v 156.500000 53.604351 8.000001
v 156.500000 75.304337 2.999999
v 156.500000 75.304337 8.000001
v 156.500000 78.304352 2.999999
v 156.500000 78.304352 8.000001
v 157.500000 48.604351 0.000000
v 157.500000 48.604351 8.000001
v 157.500000 80.304352 0.000000
v 157.500000 80.304352 8.000001
v 158.000000 48.738319 0.000000
v 158.000000 48.738319 8.000001
v 158.000000 80.170372 0.000000
v 158.000000 80.170372 8.000001
v 158.365997 49.104351 0.000000
v 158.365997 49.104351 8.000001
v 158.365997 79.804352 0.000000
v 158.365997 79.804352 8.000001
v 158.500000 49.604351 0.000000
v 158.500000 49.604351 8.000001
v 158.500000 53.604351 2.999999
v 158.500000 53.604351 8.000001
v 158.500000 75.304337 2.999999
v 158.500000 75.304337 8.000001
v 158.500000 79.304337 0.000000
v 158.500000 79.304337 8.000001
usemtl Stahl_-_satiniert
f 385 387 377
f 377 379 367
f 383 403 405
f 369 363 361
f 359 357 367
f 375 381 383
f 365 373 375
f 405 385 383
f 383 385 377
f 383 377 375
f 375 377 367
f 375 367 365
f 361 341 339
f 355 331 351
f 351 331 347
f 353 349 328
f 328 349 345
f 328 345 337
f 339 359 361
f 361 359 367
f 361 367 369
f 369 367 379
f 369 379 371
f 337 339 328
f 328 339 341
f 328 341 331
f 331 341 343
f 331 343 347
f 153 151 154
f 154 151 152
f 156 155 157
f 157 155 154
f 157 154 150
f 150 154 152
f 150 152 149
f 298 319 310
f 310 319 322
f 310 322 300
f 196 207 165
f 199 190 158
f 302 325 312
f 312 325 326
f 312 326 304
f 304 326 296
f 298 290 319
f 319 290 279
f 319 279 158
f 158 279 270
f 158 270 262
f 254 230 262
f 262 230 218
f 262 218 158
f 158 218 210
f 158 210 199
f 264 272 244
f 244 272 281
f 244 281 322
f 322 281 292
f 322 292 300
f 244 246 212
f 190 182 158
f 158 182 174
f 158 174 161
f 161 174 184
f 161 184 240
f 240 184 192
f 240 192 201
f 165 207 326
f 326 207 216
f 326 216 224
f 232 285 274
f 254 264 230
f 230 264 244
f 230 244 220
f 220 244 212
f 232 246 285
f 285 246 325
f 285 325 294
f 294 325 302
f 224 276 326
f 326 276 287
f 326 287 296
f 201 212 240
f 240 212 246
f 240 246 242
f 242 246 232
f 242 232 222
f 274 266 232
f 232 266 256
f 232 256 224
f 224 256 268
f 224 268 276
f 194 164 205
f 205 164 242
f 205 242 214
f 214 242 222
f 194 186 164
f 164 186 176
f 164 176 165
f 165 176 188
f 165 188 196
f 151 202 178
f 239 306 282
f 282 258 239
f 239 258 250
f 239 250 234
f 156 172 168
f 203 241 179
f 179 241 163
f 179 163 171
f 234 250 237
f 237 250 247
f 237 247 233
f 171 163 168
f 168 163 155
f 168 155 156
f 314 306 243
f 243 306 239
f 243 239 245
f 245 239 241
f 178 170 151
f 151 170 167
f 151 167 3
f 3 167 1
f 203 227 241
f 241 227 248
f 241 248 245
f 245 248 251
f 260 156 288
f 288 156 335
f 288 335 308
f 308 335 316
f 227 235 248
f 248 235 238
f 248 238 252
f 395 399 391
f 391 399 407
f 401 397 393
f 234 226 239
f 239 226 202
f 239 202 160
f 160 202 151
f 160 151 153
f 238 236 252
f 252 236 228
f 252 228 260
f 260 228 208
f 260 208 156
f 156 208 180
f 156 180 172
f 305 330 277
f 277 330 1
f 277 1 257
f 393 389 401
f 401 389 1
f 401 1 407
f 407 1 330
f 407 330 391
f 167 169 1
f 1 169 177
f 1 177 197
f 305 313 330
f 330 313 317
f 330 317 332
f 332 317 314
f 332 314 321
f 321 314 243
f 251 259 245
f 245 259 283
f 245 283 324
f 324 283 307
f 324 307 334
f 334 307 315
f 334 315 335
f 335 315 318
f 335 318 316
f 257 1 249
f 249 1 197
f 249 197 247
f 247 197 225
f 247 225 233
f 244 322 243
f 243 322 321
f 327 320 336
f 336 320 329
f 333 334 335
f 330 332 331
f 331 332 333
f 335 336 333
f 333 336 329
f 333 329 331
f 331 329 328
f 323 321 322
f 327 326 323
f 323 326 325
f 323 325 324
f 322 319 323
f 323 319 320
f 323 320 327
f 321 323 332
f 332 323 333
f 334 333 324
f 324 333 323
f 389 390 374
f 374 373 389
f 389 373 365
f 389 365 1
f 328 329 320
f 319 158 1
f 2 1 149
f 149 1 158
f 149 158 150
f 150 158 159
f 366 354 365
f 365 354 353
f 365 353 1
f 1 353 328
f 1 328 319
f 319 328 320
f 245 246 243
f 243 246 244
f 327 336 326
f 326 336 335
f 326 335 165
f 165 335 156
f 165 156 166
f 166 156 157
f 325 246 324
f 324 246 245
f 239 240 241
f 241 240 242
f 160 161 239
f 239 161 240
f 164 163 242
f 242 163 241
f 157 150 166
f 166 150 159
f 154 155 162
f 162 155 163
f 153 154 160
f 160 154 162
f 161 160 162
f 162 163 164
f 158 161 159
f 159 161 162
f 159 162 166
f 166 162 164
f 166 164 165
f 65 53 149
f 149 53 37
f 149 37 2
f 75 69 39
f 39 69 57
f 39 57 23
f 23 57 41
f 23 41 11
f 73 65 109
f 109 65 149
f 109 149 125
f 125 149 137
f 152 4 115
f 115 4 99
f 37 21 2
f 2 21 9
f 2 9 5
f 2 7 4
f 4 7 15
f 115 131 152
f 152 131 143
f 152 143 147
f 11 41 5
f 5 41 25
f 5 25 2
f 2 25 13
f 2 13 7
f 81 39 93
f 93 39 55
f 93 55 109
f 109 55 67
f 109 67 73
f 95 111 147
f 147 111 127
f 147 127 152
f 152 127 139
f 152 139 149
f 149 139 145
f 149 145 137
f 15 27 4
f 4 27 43
f 4 43 99
f 99 43 59
f 99 59 71
f 147 141 95
f 95 141 129
f 95 129 83
f 83 129 113
f 83 113 77
f 77 113 97
f 77 97 85
f 81 77 39
f 39 77 85
f 39 85 75
f 75 85 79
f 75 79 71
f 71 79 87
f 71 87 99
f 3 4 151
f 151 4 152
f 4 3 2
f 2 3 1
f 391 330 355
f 355 330 331
f 380 392 379
f 379 392 391
f 379 391 371
f 371 391 355
f 371 355 372
f 372 355 356
f 404 402 403
f 403 402 401
f 403 401 405
f 405 401 407
f 405 407 406
f 406 407 408
f 174 173 184
f 184 173 183
f 184 183 192
f 192 183 191
f 192 191 201
f 201 191 200
f 201 200 212
f 212 200 211
f 212 211 220
f 220 211 219
f 220 219 230
f 230 219 229
f 230 229 218
f 218 229 217
f 218 217 210
f 210 217 209
f 210 209 199
f 199 209 198
f 199 198 190
f 190 198 189
f 190 189 182
f 182 189 181
f 182 181 174
f 174 181 173
f 183 170 191
f 191 170 178
f 191 178 200
f 200 178 202
f 200 202 211
f 211 202 226
f 211 226 219
f 219 226 234
f 219 234 229
f 229 234 237
f 229 237 217
f 217 237 233
f 217 233 209
f 209 233 225
f 209 225 198
f 198 225 197
f 198 197 189
f 189 197 177
f 189 177 181
f 181 177 169
f 181 169 173
f 173 169 167
f 173 167 183
f 183 167 170
f 176 175 188
f 188 175 187
f 188 187 196
f 196 187 195
f 196 195 207
f 207 195 206
f 207 206 216
f 216 206 215
f 216 215 224
f 224 215 223
f 224 223 232
f 232 223 231
f 232 231 222
f 222 231 221
f 222 221 214
f 214 221 213
f 214 213 205
f 205 213 204
f 205 204 194
f 194 204 193
f 194 193 186
f 186 193 185
f 186 185 176
f 176 185 175
f 187 172 195
f 195 172 180
f 195 180 206
f 206 180 208
f 206 208 215
f 215 208 228
f 215 228 223
f 223 228 236
f 223 236 231
f 231 236 238
f 231 238 221
f 221 238 235
f 221 235 213
f 213 235 227
f 213 227 204
f 204 227 203
f 204 203 193
f 193 203 179
f 193 179 185
f 185 179 171
f 185 171 175
f 175 171 168
f 175 168 187
f 187 168 172
f 254 253 264
f 264 253 263
f 264 263 272
f 272 263 271
f 272 271 281
f 281 271 280
f 281 280 292
f 292 280 291
f 292 291 300
f 300 291 299
f 300 299 310
f 310 299 309
f 310 309 298
f 298 309 297
f 298 297 290
f 290 297 289
f 290 289 279
f 279 289 278
f 279 278 270
f 270 278 269
f 270 269 262
f 262 269 261
f 262 261 254
f 254 261 253
f 263 250 271
f 271 250 258
f 271 258 280
f 280 258 282
f 280 282 291
f 291 282 306
f 291 306 299
f 299 306 314
f 299 314 309
f 309 314 317
f 309 317 297
f 297 317 313
f 297 313 289
f 289 313 305
f 289 305 278
f 278 305 277
f 278 277 269
f 269 277 257
f 269 257 261
f 261 257 249
f 261 249 253
f 253 249 247
f 253 247 263
f 263 247 250
f 256 255 268
f 268 255 267
f 268 267 276
f 276 267 275
f 276 275 287
f 287 275 286
f 287 286 296
f 296 286 295
f 296 295 304
f 304 295 303
f 304 303 312
f 312 303 311
f 312 311 302
f 302 311 301
f 302 301 294
f 294 301 293
f 294 293 285
f 285 293 284
f 285 284 274
f 274 284 273
f 274 273 266
f 266 273 265
f 266 265 256
f 256 265 255
f 267 252 275
f 275 252 260
f 275 260 286
f 286 260 288
f 286 288 295
f 295 288 308
f 295 308 303
f 303 308 316
f 303 316 311
f 311 316 318
f 311 318 301
f 301 318 315
f 301 315 293
f 293 315 307
f 293 307 284
f 284 307 283
f 284 283 273
f 273 283 259
f 273 259 265
f 265 259 251
f 265 251 255
f 255 251 248
f 255 248 267
f 267 248 252
f 362 342 361
f 361 342 341
f 364 362 363
f 363 362 361
f 370 364 369
f 369 364 363
f 372 370 371
f 371 370 369
f 343 341 344
f 344 341 342
f 370 372 364
f 364 372 356
f 342 362 344
f 344 362 364
f 344 364 348
f 348 364 356
f 348 356 352
f 388 378 387
f 387 378 377
f 386 388 385
f 385 388 387
f 406 386 405
f 405 386 385
f 378 380 377
f 377 380 379
f 386 406 388
f 388 406 408
f 380 378 392
f 392 378 388
f 392 388 396
f 396 388 408
f 396 408 400
f 340 360 339
f 339 360 359
f 338 340 337
f 337 340 339
f 368 366 367
f 367 366 365
f 358 368 357
f 357 368 367
f 360 358 359
f 359 358 357
f 360 340 358
f 358 340 338
f 366 368 354
f 354 368 358
f 354 358 350
f 350 358 338
f 350 338 346
f 384 404 383
f 383 404 403
f 382 384 381
f 381 384 383
f 376 382 375
f 375 382 381
f 374 376 373
f 373 376 375
f 394 382 390
f 390 382 376
f 390 376 374
f 404 384 402
f 402 384 382
f 402 382 398
f 398 382 394
f 356 355 351
f 356 351 352
f 352 351 347
f 352 347 348
f 348 347 343
f 348 343 344
f 391 392 396
f 391 396 395
f 395 396 400
f 395 400 399
f 399 400 408
f 399 408 407
f 401 402 398
f 401 398 397
f 397 398 394
f 397 394 393
f 393 394 390
f 393 390 389
f 353 354 350
f 353 350 349
f 349 350 346
f 349 346 345
f 345 346 338
f 345 338 337
f 7 16 15
f 15 16 28
f 15 28 27
f 27 28 44
f 27 44 43
f 43 44 60
f 43 60 59
f 59 60 72
f 59 72 71
f 71 72 76
f 71 76 75
f 75 76 70
f 75 70 69
f 69 70 58
f 69 58 57
f 57 58 42
f 57 42 41
f 41 42 26
f 41 26 25
f 25 26 14
f 25 14 13
f 13 14 8
f 13 8 7
f 7 8 16
f 50 58 70
f 50 70 64
f 34 20 8
f 8 14 34
f 34 14 26
f 34 26 50
f 50 26 42
f 50 42 58
f 52 44 36
f 36 44 28
f 36 28 20
f 20 28 16
f 20 16 8
f 70 76 64
f 64 76 72
f 64 72 52
f 52 72 60
f 52 60 44
f 79 88 87
f 87 88 100
f 87 100 99
f 99 100 116
f 99 116 115
f 115 116 132
f 115 132 131
f 131 132 144
f 131 144 143
f 143 144 148
f 143 148 147
f 147 148 142
f 147 142 141
f 141 142 130
f 141 130 129
f 129 130 114
f 129 114 113
f 113 114 98
f 113 98 97
f 97 98 86
f 97 86 85
f 85 86 80
f 85 80 79
f 79 80 88
f 122 130 142
f 122 142 136
f 106 98 122
f 122 98 114
f 122 114 130
f 108 88 92
f 92 88 80
f 92 80 106
f 106 80 86
f 106 86 98
f 124 116 108
f 108 116 100
f 108 100 88
f 142 148 136
f 136 148 144
f 136 144 124
f 124 144 132
f 124 132 116
f 77 84 83
f 83 84 96
f 83 96 95
f 95 96 112
f 95 112 111
f 111 112 128
f 111 128 127
f 127 128 140
f 127 140 139
f 139 140 146
f 139 146 145
f 145 146 138
f 145 138 137
f 137 138 126
f 137 126 125
f 125 126 110
f 125 110 109
f 109 110 94
f 109 94 93
f 93 94 82
f 93 82 81
f 81 82 78
f 81 78 77
f 77 78 84
f 82 94 102
f 118 126 134
f 134 126 138
f 102 94 118
f 118 94 110
f 118 110 126
f 82 102 78
f 78 102 90
f 78 90 84
f 84 90 104
f 84 104 96
f 138 146 134
f 134 146 140
f 134 140 120
f 120 140 128
f 120 128 104
f 104 128 112
f 104 112 96
f 5 12 11
f 11 12 24
f 11 24 23
f 23 24 40
f 23 40 39
f 39 40 56
f 39 56 55
f 55 56 68
f 55 68 67
f 67 68 74
f 67 74 73
f 73 74 66
f 73 66 65
f 65 66 54
f 65 54 53
f 53 54 38
f 53 38 37
f 37 38 22
f 37 22 21
f 21 22 10
f 21 10 9
f 9 10 6
f 9 6 5
f 5 6 12
f 66 74 62
f 18 32 24
f 24 32 40
f 40 32 48
f 40 48 56
f 62 74 48
f 48 74 68
f 48 68 56
f 66 62 54
f 54 62 46
f 54 46 38
f 38 46 30
f 38 30 22
f 24 12 18
f 18 12 6
f 18 6 30
f 30 6 10
f 30 10 22
f 61 45 62
f 62 45 46
f 45 29 46
f 46 29 30
f 29 17 30
f 30 17 18
f 17 31 18
f 18 31 32
f 31 47 32
f 32 47 48
f 47 61 48
f 48 61 62
f 45 61 29
f 29 61 47
f 29 47 17
f 17 47 31
f 133 117 134
f 134 117 118
f 117 101 118
f 118 101 102
f 101 89 102
f 102 89 90
f 89 103 90
f 90 103 104
f 103 119 104
f 104 119 120
f 119 133 120
f 120 133 134
f 103 89 119
f 119 89 101
f 119 101 133
f 133 101 117
f 135 121 136
f 136 121 122
f 121 105 122
f 122 105 106
f 105 91 106
f 106 91 92
f 91 107 92
f 92 107 108
f 107 123 108
f 108 123 124
f 123 135 124
f 124 135 136
f 121 135 105
f 105 135 123
f 105 123 91
f 91 123 107
f 63 49 64
f 64 49 50
f 49 33 50
f 50 33 34
f 33 19 34
f 34 19 20
f 19 35 20
f 20 35 36
f 35 51 36
f 36 51 52
f 51 63 52
f 52 63 64
f 51 35 63
f 63 35 19
f 63 19 49
f 49 19 33
# 408 vertices
# 0 texture params
# 0 normals
# 836 facets

# 1 groups
